<?xml version="1.0" standalone="no"?>
<!DOCTYPE svg PUBLIC "-//W3C//DTD SVG 20010904//EN"
 "http://www.w3.org/TR/2001/REC-SVG-20010904/DTD/svg10.dtd">
<svg version="1.0" xmlns="http://www.w3.org/2000/svg"
 width="420.000000pt" height="420.000000pt" viewBox="0 0 420.000000 420.000000"
 preserveAspectRatio="xMidYMid meet">
<metadata>
Created by potrace 1.14, written by Peter Selinger 2001-2017
</metadata>
<g transform="translate(0.000000,420.000000) scale(0.100000,-0.100000)"
fill="#000000" stroke="none">
<path d="M0 2100 l0 -2100 2100 0 2100 0 0 2100 0 2100 -2100 0 -2100 0 0
-2100z m2773 1639 l119 -21 -6 -52 c-8 -57 5 -140 84 -581 44 -246 180 -1174
180 -1229 0 -19 -6 -21 -73 -22 -105 -1 -169 -38 -212 -123 -20 -40 -21 -47
-40 -530 -9 -212 -19 -390 -23 -397 -4 -6 -41 -49 -83 -95 -42 -46 -134 -149
-205 -229 -204 -228 -255 -280 -250 -250 3 14 14 79 25 145 67 392 63 377 127
481 40 67 55 100 48 109 -81 113 -267 382 -270 390 -2 5 -10 113 -19 238 -8
126 -17 233 -21 238 -17 29 -41 -6 -139 -201 l-105 -209 -80 -58 c-44 -32
-135 -97 -203 -144 -67 -47 -122 -92 -122 -100 0 -8 6 -59 14 -114 13 -98 12
-104 -18 -275 -42 -229 -61 -331 -68 -354 -6 -22 -15 -4 -63 129 -16 44 -67
186 -115 315 -48 129 -92 252 -100 273 -13 37 -10 48 124 450 127 380 138 416
131 462 -7 59 -28 100 -67 136 -31 30 -104 69 -127 69 -8 0 -17 4 -21 9 -11
19 457 845 678 1196 188 300 229 372 252 451 3 10 66 0 648 -107z"/>
</g>
</svg>
